G04 #@! TF.GenerationSoftware,KiCad,Pcbnew,(5.0.2)-1*
G04 #@! TF.CreationDate,2019-04-16T13:26:55-07:00*
G04 #@! TF.ProjectId,signet-pcb,7369676e-6574-42d7-9063-622e6b696361,rev?*
G04 #@! TF.SameCoordinates,Original*
G04 #@! TF.FileFunction,Soldermask,Top*
G04 #@! TF.FilePolarity,Negative*
%FSLAX46Y46*%
G04 Gerber Fmt 4.6, Leading zero omitted, Abs format (unit mm)*
G04 Created by KiCad (PCBNEW (5.0.2)-1) date 4/16/2019 1:26:55 PM*
%MOMM*%
%LPD*%
G01*
G04 APERTURE LIST*
%ADD10C,0.150000*%
G04 APERTURE END LIST*
D10*
G36*
X112447520Y-100986320D02*
X111047520Y-100986320D01*
X111047520Y-98986320D01*
X112447520Y-98986320D01*
X112447520Y-100986320D01*
X112447520Y-100986320D01*
G37*
G36*
X108947520Y-100986320D02*
X107547520Y-100986320D01*
X107547520Y-98986320D01*
X108947520Y-98986320D01*
X108947520Y-100986320D01*
X108947520Y-100986320D01*
G37*
G36*
X110700000Y-98486320D02*
X109300000Y-98486320D01*
X109300000Y-96486320D01*
X110700000Y-96486320D01*
X110700000Y-98486320D01*
X110700000Y-98486320D01*
G37*
G36*
X114857520Y-96836320D02*
X113157520Y-96836320D01*
X113157520Y-95836320D01*
X114857520Y-95836320D01*
X114857520Y-96836320D01*
X114857520Y-96836320D01*
G37*
G36*
X108350000Y-94700000D02*
X106582520Y-94700000D01*
X106558134Y-94702402D01*
X106534685Y-94709515D01*
X106513074Y-94721066D01*
X106494132Y-94736612D01*
X106478586Y-94755554D01*
X106467035Y-94777165D01*
X106459922Y-94800614D01*
X106457520Y-94825000D01*
X106457520Y-95151320D01*
X106459922Y-95175706D01*
X106467035Y-95199155D01*
X106478586Y-95220766D01*
X106494132Y-95239708D01*
X106513074Y-95255254D01*
X106534685Y-95266805D01*
X106558134Y-95273918D01*
X106582520Y-95276320D01*
X108667520Y-95276320D01*
X108667520Y-96376320D01*
X106582520Y-96376320D01*
X106558134Y-96378722D01*
X106534685Y-96385835D01*
X106533778Y-96386320D01*
X105457520Y-96386320D01*
X105457520Y-94686320D01*
X106375000Y-94686320D01*
X106399386Y-94683918D01*
X106422835Y-94676805D01*
X106444446Y-94665254D01*
X106463388Y-94649708D01*
X106478934Y-94630766D01*
X106490485Y-94609155D01*
X106497598Y-94585706D01*
X106500000Y-94561320D01*
X106500000Y-93300000D01*
X108350000Y-93300000D01*
X108350000Y-94700000D01*
X108350000Y-94700000D01*
G37*
G36*
X113500000Y-94700000D02*
X111650000Y-94700000D01*
X111650000Y-93300000D01*
X113500000Y-93300000D01*
X113500000Y-94700000D01*
X113500000Y-94700000D01*
G37*
G36*
X116537520Y-94466320D02*
X114437520Y-94466320D01*
X114437520Y-93566320D01*
X116537520Y-93566320D01*
X116537520Y-94466320D01*
X116537520Y-94466320D01*
G37*
G36*
X104816810Y-91886320D02*
X104817520Y-91893528D01*
X104817520Y-93161320D01*
X103617520Y-93161320D01*
X103617520Y-92121370D01*
X103616710Y-92113147D01*
X103616710Y-90796270D01*
X104816810Y-90796270D01*
X104816810Y-91886320D01*
X104816810Y-91886320D01*
G37*
G36*
X108350000Y-93000000D02*
X106442520Y-93000000D01*
X106418134Y-93002402D01*
X106394685Y-93009515D01*
X106373074Y-93021066D01*
X106354132Y-93036612D01*
X106338586Y-93055554D01*
X106327035Y-93077165D01*
X106319922Y-93100614D01*
X106317520Y-93125000D01*
X106317520Y-93161320D01*
X105117520Y-93161320D01*
X105117520Y-92011320D01*
X106375000Y-92011320D01*
X106399386Y-92008918D01*
X106422835Y-92001805D01*
X106444446Y-91990254D01*
X106463388Y-91974708D01*
X106478934Y-91955766D01*
X106490485Y-91934155D01*
X106497598Y-91910706D01*
X106500000Y-91886320D01*
X106500000Y-91600000D01*
X108350000Y-91600000D01*
X108350000Y-93000000D01*
X108350000Y-93000000D01*
G37*
G36*
X113500000Y-93000000D02*
X111650000Y-93000000D01*
X111650000Y-91600000D01*
X113500000Y-91600000D01*
X113500000Y-93000000D01*
X113500000Y-93000000D01*
G37*
G36*
X114887520Y-92656320D02*
X113887520Y-92656320D01*
X113887520Y-90956320D01*
X114887520Y-90956320D01*
X114887520Y-92656320D01*
X114887520Y-92656320D01*
G37*
G36*
X113257520Y-91116320D02*
X111157520Y-91116320D01*
X111157520Y-90016320D01*
X113257520Y-90016320D01*
X113257520Y-91116320D01*
X113257520Y-91116320D01*
G37*
G36*
X106815790Y-91046370D02*
X105615690Y-91046370D01*
X105615690Y-89846270D01*
X106815790Y-89846270D01*
X106815790Y-91046370D01*
X106815790Y-91046370D01*
G37*
G36*
X104837520Y-88817540D02*
X104826325Y-88838485D01*
X104819212Y-88861934D01*
X104816810Y-88886320D01*
X104816810Y-90096370D01*
X103616710Y-90096370D01*
X103616710Y-88840237D01*
X103628005Y-88819105D01*
X103635118Y-88795656D01*
X103637520Y-88771270D01*
X103637520Y-87611320D01*
X104837520Y-87611320D01*
X104837520Y-88817540D01*
X104837520Y-88817540D01*
G37*
G36*
X106337520Y-88761320D02*
X105137520Y-88761320D01*
X105137520Y-87611320D01*
X106337520Y-87611320D01*
X106337520Y-88761320D01*
X106337520Y-88761320D01*
G37*
G36*
X104620041Y-85240906D02*
X104783829Y-85308749D01*
X104931240Y-85407246D01*
X105056594Y-85532600D01*
X105155091Y-85680011D01*
X105222934Y-85843799D01*
X105257520Y-86017676D01*
X105257520Y-86194964D01*
X105222934Y-86368841D01*
X105155091Y-86532629D01*
X105056594Y-86680040D01*
X104931240Y-86805394D01*
X104783829Y-86903891D01*
X104620041Y-86971734D01*
X104446164Y-87006320D01*
X104268876Y-87006320D01*
X104094999Y-86971734D01*
X103931211Y-86903891D01*
X103783800Y-86805394D01*
X103658446Y-86680040D01*
X103559949Y-86532629D01*
X103492106Y-86368841D01*
X103457520Y-86194964D01*
X103457520Y-86017676D01*
X103492106Y-85843799D01*
X103559949Y-85680011D01*
X103658446Y-85532600D01*
X103783800Y-85407246D01*
X103931211Y-85308749D01*
X104094999Y-85240906D01*
X104268876Y-85206320D01*
X104446164Y-85206320D01*
X104620041Y-85240906D01*
X104620041Y-85240906D01*
G37*
G36*
X106625888Y-82984470D02*
X106806274Y-83020350D01*
X106997362Y-83099502D01*
X107169336Y-83214411D01*
X107315589Y-83360664D01*
X107430498Y-83532638D01*
X107509650Y-83723726D01*
X107550000Y-83926584D01*
X107550000Y-84133416D01*
X107509650Y-84336274D01*
X107430498Y-84527362D01*
X107315589Y-84699336D01*
X107169336Y-84845589D01*
X106997362Y-84960498D01*
X106973491Y-84970386D01*
X106951887Y-84981933D01*
X106932945Y-84997479D01*
X106917399Y-85016421D01*
X106905848Y-85038031D01*
X106898735Y-85061481D01*
X106896333Y-85085867D01*
X106898735Y-85110253D01*
X106905848Y-85133702D01*
X106917399Y-85155313D01*
X106932945Y-85174255D01*
X106951887Y-85189801D01*
X106973497Y-85201352D01*
X106996947Y-85208465D01*
X107160041Y-85240906D01*
X107323829Y-85308749D01*
X107471240Y-85407246D01*
X107596594Y-85532600D01*
X107695091Y-85680011D01*
X107762934Y-85843799D01*
X107797520Y-86017676D01*
X107797520Y-86194964D01*
X107762934Y-86368841D01*
X107695091Y-86532629D01*
X107596594Y-86680040D01*
X107471240Y-86805394D01*
X107323829Y-86903891D01*
X107160041Y-86971734D01*
X106986164Y-87006320D01*
X106808876Y-87006320D01*
X106634999Y-86971734D01*
X106471211Y-86903891D01*
X106323800Y-86805394D01*
X106198446Y-86680040D01*
X106099949Y-86532629D01*
X106032106Y-86368841D01*
X105997520Y-86194964D01*
X105997520Y-86017676D01*
X106032106Y-85843799D01*
X106099949Y-85680011D01*
X106198446Y-85532600D01*
X106323800Y-85407246D01*
X106470934Y-85308934D01*
X106489876Y-85293388D01*
X106505422Y-85274446D01*
X106516973Y-85252835D01*
X106524086Y-85229386D01*
X106526488Y-85205000D01*
X106524086Y-85180614D01*
X106516973Y-85157165D01*
X106505422Y-85135554D01*
X106489876Y-85116612D01*
X106470934Y-85101066D01*
X106449323Y-85089515D01*
X106425874Y-85082402D01*
X106401488Y-85080000D01*
X106396583Y-85080000D01*
X106374112Y-85075530D01*
X106193726Y-85039650D01*
X106002638Y-84960498D01*
X105830664Y-84845589D01*
X105684411Y-84699336D01*
X105569502Y-84527362D01*
X105490350Y-84336274D01*
X105450000Y-84133416D01*
X105450000Y-83926584D01*
X105490350Y-83723726D01*
X105569502Y-83532638D01*
X105684411Y-83360664D01*
X105830664Y-83214411D01*
X106002638Y-83099502D01*
X106193726Y-83020350D01*
X106374112Y-82984470D01*
X106396583Y-82980000D01*
X106603417Y-82980000D01*
X106625888Y-82984470D01*
X106625888Y-82984470D01*
G37*
G36*
X113625888Y-82984470D02*
X113806274Y-83020350D01*
X113997362Y-83099502D01*
X114169336Y-83214411D01*
X114315589Y-83360664D01*
X114430498Y-83532638D01*
X114509650Y-83723726D01*
X114550000Y-83926584D01*
X114550000Y-84133416D01*
X114509650Y-84336274D01*
X114430498Y-84527362D01*
X114315589Y-84699336D01*
X114169336Y-84845589D01*
X113997362Y-84960498D01*
X113806274Y-85039650D01*
X113625888Y-85075530D01*
X113603417Y-85080000D01*
X113396583Y-85080000D01*
X113374112Y-85075530D01*
X113193726Y-85039650D01*
X113002638Y-84960498D01*
X112830664Y-84845589D01*
X112684411Y-84699336D01*
X112569502Y-84527362D01*
X112490350Y-84336274D01*
X112450000Y-84133416D01*
X112450000Y-83926584D01*
X112490350Y-83723726D01*
X112569502Y-83532638D01*
X112684411Y-83360664D01*
X112830664Y-83214411D01*
X113002638Y-83099502D01*
X113193726Y-83020350D01*
X113374112Y-82984470D01*
X113396583Y-82980000D01*
X113603417Y-82980000D01*
X113625888Y-82984470D01*
X113625888Y-82984470D01*
G37*
G36*
X109125888Y-82984470D02*
X109306274Y-83020350D01*
X109497362Y-83099502D01*
X109669336Y-83214411D01*
X109815589Y-83360664D01*
X109896071Y-83481114D01*
X109911612Y-83500050D01*
X109930554Y-83515596D01*
X109952164Y-83527147D01*
X109975614Y-83534260D01*
X110000000Y-83536662D01*
X110024386Y-83534260D01*
X110047835Y-83527147D01*
X110069446Y-83515596D01*
X110088388Y-83500050D01*
X110103929Y-83481114D01*
X110184411Y-83360664D01*
X110330664Y-83214411D01*
X110502638Y-83099502D01*
X110693726Y-83020350D01*
X110874112Y-82984470D01*
X110896583Y-82980000D01*
X111103417Y-82980000D01*
X111125888Y-82984470D01*
X111306274Y-83020350D01*
X111497362Y-83099502D01*
X111669336Y-83214411D01*
X111815589Y-83360664D01*
X111930498Y-83532638D01*
X112009650Y-83723726D01*
X112050000Y-83926584D01*
X112050000Y-84133416D01*
X112009650Y-84336274D01*
X111930498Y-84527362D01*
X111815589Y-84699336D01*
X111669336Y-84845589D01*
X111497362Y-84960498D01*
X111306274Y-85039650D01*
X111125888Y-85075530D01*
X111103417Y-85080000D01*
X110896583Y-85080000D01*
X110874112Y-85075530D01*
X110693726Y-85039650D01*
X110502638Y-84960498D01*
X110330664Y-84845589D01*
X110184411Y-84699336D01*
X110103929Y-84578886D01*
X110088388Y-84559950D01*
X110069446Y-84544404D01*
X110047836Y-84532853D01*
X110024386Y-84525740D01*
X110000000Y-84523338D01*
X109975614Y-84525740D01*
X109952165Y-84532853D01*
X109930554Y-84544404D01*
X109911612Y-84559950D01*
X109896071Y-84578886D01*
X109815589Y-84699336D01*
X109669336Y-84845589D01*
X109497362Y-84960498D01*
X109306274Y-85039650D01*
X109125888Y-85075530D01*
X109103417Y-85080000D01*
X108896583Y-85080000D01*
X108874112Y-85075530D01*
X108693726Y-85039650D01*
X108502638Y-84960498D01*
X108330664Y-84845589D01*
X108184411Y-84699336D01*
X108069502Y-84527362D01*
X107990350Y-84336274D01*
X107950000Y-84133416D01*
X107950000Y-83926584D01*
X107990350Y-83723726D01*
X108069502Y-83532638D01*
X108184411Y-83360664D01*
X108330664Y-83214411D01*
X108502638Y-83099502D01*
X108693726Y-83020350D01*
X108874112Y-82984470D01*
X108896583Y-82980000D01*
X109103417Y-82980000D01*
X109125888Y-82984470D01*
X109125888Y-82984470D01*
G37*
G36*
X105075000Y-83700000D02*
X103225000Y-83700000D01*
X103225000Y-80100000D01*
X105075000Y-80100000D01*
X105075000Y-83700000D01*
X105075000Y-83700000D01*
G37*
G36*
X116800000Y-83700000D02*
X114900000Y-83700000D01*
X114900000Y-80100000D01*
X116800000Y-80100000D01*
X116800000Y-83700000D01*
X116800000Y-83700000D01*
G37*
M02*
