G04 #@! TF.GenerationSoftware,KiCad,Pcbnew,(5.0.2)-1*
G04 #@! TF.CreationDate,2019-04-16T13:26:55-07:00*
G04 #@! TF.ProjectId,signet-pcb,7369676e-6574-42d7-9063-622e6b696361,rev?*
G04 #@! TF.SameCoordinates,Original*
G04 #@! TF.FileFunction,Copper,L1,Top*
G04 #@! TF.FilePolarity,Positive*
%FSLAX46Y46*%
G04 Gerber Fmt 4.6, Leading zero omitted, Abs format (unit mm)*
G04 Created by KiCad (PCBNEW (5.0.2)-1) date 4/16/2019 1:26:55 PM*
%MOMM*%
%LPD*%
G01*
G04 APERTURE LIST*
G04 #@! TA.AperFunction,SMDPad,CuDef*
%ADD10R,0.800100X0.800100*%
G04 #@! TD*
G04 #@! TA.AperFunction,SMDPad,CuDef*
%ADD11R,0.400000X0.600000*%
G04 #@! TD*
G04 #@! TA.AperFunction,SMDPad,CuDef*
%ADD12R,0.600000X0.500000*%
G04 #@! TD*
G04 #@! TA.AperFunction,SMDPad,CuDef*
%ADD13R,0.600000X0.400000*%
G04 #@! TD*
G04 #@! TA.AperFunction,SMDPad,CuDef*
%ADD14R,0.600000X0.700000*%
G04 #@! TD*
G04 #@! TA.AperFunction,ComponentPad*
%ADD15R,1.500000X3.200000*%
G04 #@! TD*
G04 #@! TA.AperFunction,ComponentPad*
%ADD16C,1.700000*%
G04 #@! TD*
G04 #@! TA.AperFunction,ComponentPad*
%ADD17R,1.450000X3.200000*%
G04 #@! TD*
G04 #@! TA.AperFunction,SMDPad,CuDef*
%ADD18R,0.800000X0.750000*%
G04 #@! TD*
G04 #@! TA.AperFunction,SMDPad,CuDef*
%ADD19R,1.450000X1.000000*%
G04 #@! TD*
G04 #@! TA.AperFunction,ComponentPad*
%ADD20C,1.400000*%
G04 #@! TD*
G04 #@! TA.AperFunction,SMDPad,CuDef*
%ADD21R,1.000000X1.600000*%
G04 #@! TD*
G04 #@! TA.AperFunction,ViaPad*
%ADD22C,0.700000*%
G04 #@! TD*
G04 #@! TA.AperFunction,Conductor*
%ADD23C,0.300000*%
G04 #@! TD*
G04 #@! TA.AperFunction,Conductor*
%ADD24C,0.250000*%
G04 #@! TD*
G04 #@! TA.AperFunction,Conductor*
%ADD25C,0.400000*%
G04 #@! TD*
G04 #@! TA.AperFunction,Conductor*
%ADD26C,0.254000*%
G04 #@! TD*
G04 APERTURE END LIST*
D10*
G04 #@! TO.P,P1,1*
G04 #@! TO.N,+5V*
X104216760Y-89496320D03*
G04 #@! TO.P,P1,2*
G04 #@! TO.N,VDD*
X104216760Y-91396320D03*
G04 #@! TO.P,P1,3*
G04 #@! TO.N,GND*
X106215740Y-90446320D03*
G04 #@! TD*
D11*
G04 #@! TO.P,R4,1*
G04 #@! TO.N,GND*
X114457520Y-96336320D03*
G04 #@! TO.P,R4,2*
G04 #@! TO.N,/BOOT*
X113557520Y-96336320D03*
G04 #@! TD*
D12*
G04 #@! TO.P,C11,1*
G04 #@! TO.N,/ACTIVATE*
X114937520Y-94016320D03*
G04 #@! TO.P,C11,2*
G04 #@! TO.N,GND*
X116037520Y-94016320D03*
G04 #@! TD*
D13*
G04 #@! TO.P,R2,1*
G04 #@! TO.N,/STATUS1*
X105957520Y-95086320D03*
G04 #@! TO.P,R2,2*
G04 #@! TO.N,Net-(D1-Pad2)*
X105957520Y-95986320D03*
G04 #@! TD*
D14*
G04 #@! TO.P,D1,2*
G04 #@! TO.N,Net-(D1-Pad2)*
X107067520Y-95826320D03*
G04 #@! TO.P,D1,1*
G04 #@! TO.N,GND*
X108167520Y-95826320D03*
G04 #@! TD*
G04 #@! TO.P,D2,2*
G04 #@! TO.N,Net-(D2-Pad2)*
X112757520Y-90566320D03*
G04 #@! TO.P,D2,1*
G04 #@! TO.N,GND*
X111657520Y-90566320D03*
G04 #@! TD*
D13*
G04 #@! TO.P,R3,1*
G04 #@! TO.N,/STATUS2*
X114387520Y-92256320D03*
G04 #@! TO.P,R3,2*
G04 #@! TO.N,Net-(D2-Pad2)*
X114387520Y-91356320D03*
G04 #@! TD*
D15*
G04 #@! TO.P,USB1,5*
G04 #@! TO.N,GND*
X115850000Y-81900000D03*
D16*
G04 #@! TO.P,USB1,1*
G04 #@! TO.N,+5V*
X106500000Y-84030000D03*
G04 #@! TO.P,USB1,2*
G04 #@! TO.N,/USB_DM*
X109000000Y-84030000D03*
G04 #@! TO.P,USB1,3*
G04 #@! TO.N,/USB_DP*
X111000000Y-84030000D03*
G04 #@! TO.P,USB1,4*
G04 #@! TO.N,GND*
X113500000Y-84030000D03*
D17*
G04 #@! TO.P,USB1,5*
X104150000Y-81900000D03*
G04 #@! TD*
D18*
G04 #@! TO.P,C1,2*
G04 #@! TO.N,GND*
X105717520Y-92586320D03*
G04 #@! TO.P,C1,1*
G04 #@! TO.N,VDD*
X104217520Y-92586320D03*
G04 #@! TD*
G04 #@! TO.P,C4,2*
G04 #@! TO.N,GND*
X105737520Y-88186320D03*
G04 #@! TO.P,C4,1*
G04 #@! TO.N,+5V*
X104237520Y-88186320D03*
G04 #@! TD*
D19*
G04 #@! TO.P,SW1,2*
G04 #@! TO.N,GND*
X107425000Y-92300000D03*
X112575000Y-92300000D03*
G04 #@! TO.P,SW1,1*
G04 #@! TO.N,/ACTIVATE*
X112575000Y-94000000D03*
X107425000Y-94000000D03*
G04 #@! TD*
D20*
G04 #@! TO.P,P2,1*
G04 #@! TO.N,/UART_RX*
X106897520Y-86106320D03*
G04 #@! TO.P,P2,2*
G04 #@! TO.N,/UART_TX*
X104357520Y-86106320D03*
G04 #@! TD*
D21*
G04 #@! TO.P,BOOTSW,2*
G04 #@! TO.N,VDD*
X110000000Y-97486320D03*
G04 #@! TO.P,BOOTSW,3*
G04 #@! TO.N,N/C*
X108247520Y-99986320D03*
G04 #@! TO.P,BOOTSW,1*
G04 #@! TO.N,/BOOT*
X111747520Y-99986320D03*
G04 #@! TD*
D22*
G04 #@! TO.N,GND*
X110517520Y-94176320D03*
X109357520Y-92476320D03*
G04 #@! TO.N,VDD*
X109997520Y-99146320D03*
X104617520Y-93556320D03*
G04 #@! TO.N,/BOOT*
X113387520Y-95186320D03*
G04 #@! TO.N,/ACTIVATE*
X113987520Y-93996320D03*
G04 #@! TO.N,/STATUS1*
X106127520Y-93596320D03*
G04 #@! TO.N,/STATUS2*
X114147520Y-93036320D03*
G04 #@! TD*
D23*
G04 #@! TO.N,GND*
X105717520Y-92586320D02*
X107138680Y-92586320D01*
X107138680Y-92586320D02*
X107425000Y-92300000D01*
X105717520Y-92586320D02*
X105717520Y-90944540D01*
X105717520Y-90944540D02*
X106215740Y-90446320D01*
D24*
X110177520Y-94186320D02*
X110507520Y-94186320D01*
X110507520Y-94186320D02*
X110517520Y-94176320D01*
X109547520Y-92466320D02*
X109367520Y-92466320D01*
X109367520Y-92466320D02*
X109357520Y-92476320D01*
D25*
X106227520Y-97656320D02*
X105627520Y-97656320D01*
X103247520Y-82802480D02*
X104150000Y-81900000D01*
X103247520Y-93806320D02*
X103247520Y-82802480D01*
X105247520Y-95806320D02*
X103247520Y-93806320D01*
X105247520Y-97276320D02*
X105247520Y-95806320D01*
X105627520Y-97656320D02*
X105247520Y-97276320D01*
D23*
X115850000Y-81900000D02*
X115850000Y-85363840D01*
X114996320Y-85526320D02*
X113500000Y-84030000D01*
X115687520Y-85526320D02*
X114996320Y-85526320D01*
X115850000Y-85363840D02*
X115687520Y-85526320D01*
D24*
X109038080Y-92463080D02*
X109038720Y-92463080D01*
X109037500Y-92462500D02*
X109038080Y-92463080D01*
X110763380Y-94187740D02*
X110762740Y-94187740D01*
X110762740Y-94187740D02*
X110762500Y-94187500D01*
D23*
G04 #@! TO.N,+5V*
X106500000Y-84030000D02*
X106500000Y-84643840D01*
X106500000Y-84643840D02*
X105617520Y-85526320D01*
X105617520Y-85526320D02*
X105617520Y-86806320D01*
X105617520Y-86806320D02*
X104237520Y-88186320D01*
X104237520Y-88156320D02*
X104237520Y-89475560D01*
X104237520Y-89475560D02*
X104216760Y-89496320D01*
D24*
G04 #@! TO.N,VDD*
X110000000Y-97566320D02*
X110000000Y-99143840D01*
X110000000Y-99143840D02*
X109997520Y-99146320D01*
D23*
X104217520Y-92586320D02*
X104217520Y-93156320D01*
X104217520Y-93156320D02*
X104617520Y-93556320D01*
D24*
X104216760Y-91396320D02*
X104217520Y-91397080D01*
D23*
X104217520Y-91397080D02*
X104217520Y-92586320D01*
D24*
G04 #@! TO.N,/BOOT*
X113557520Y-96336320D02*
X113557520Y-95356320D01*
X113557520Y-95356320D02*
X113387520Y-95186320D01*
X111750000Y-100016320D02*
X111750000Y-99883840D01*
X111750000Y-99883840D02*
X113557520Y-98076320D01*
X113557520Y-98076320D02*
X113557520Y-96336320D01*
X111810000Y-100126320D02*
X111750000Y-100066320D01*
X111750000Y-100066320D02*
X111927520Y-100066320D01*
X111750000Y-100026320D02*
X111777520Y-100026320D01*
G04 #@! TO.N,/ACTIVATE*
X113987520Y-93996320D02*
X114007520Y-94016320D01*
X113958840Y-94025000D02*
X113987520Y-93996320D01*
X112000000Y-94025000D02*
X113958840Y-94025000D01*
X114007520Y-94016320D02*
X114937520Y-94016320D01*
G04 #@! TO.N,/STATUS1*
X105957520Y-95086320D02*
X105957520Y-93766320D01*
X105957520Y-93766320D02*
X106127520Y-93596320D01*
G04 #@! TO.N,/STATUS2*
X114387520Y-92256320D02*
X114387520Y-92796320D01*
X114387520Y-92796320D02*
X114147520Y-93036320D01*
G04 #@! TO.N,Net-(D2-Pad2)*
X114387520Y-91356320D02*
X113597520Y-90566320D01*
X113597520Y-90566320D02*
X112757520Y-90566320D01*
G04 #@! TO.N,Net-(D1-Pad2)*
X105957520Y-95986320D02*
X106907520Y-95986320D01*
X106907520Y-95986320D02*
X107067520Y-95826320D01*
G04 #@! TD*
D26*
G04 #@! TO.N,GND*
G36*
X115977000Y-83976250D02*
X116135750Y-84135000D01*
X116540000Y-84135000D01*
X116540001Y-93162871D01*
X116463829Y-93131320D01*
X116323270Y-93131320D01*
X116164520Y-93290070D01*
X116164520Y-93891320D01*
X116184520Y-93891320D01*
X116184520Y-94141320D01*
X116164520Y-94141320D01*
X116164520Y-94742570D01*
X116323270Y-94901320D01*
X116463829Y-94901320D01*
X116540001Y-94869769D01*
X116540001Y-95290000D01*
X115680074Y-95290000D01*
X115611491Y-95303642D01*
X115611487Y-95303642D01*
X115420145Y-95341702D01*
X115164204Y-95447716D01*
X115164203Y-95447717D01*
X115164200Y-95447718D01*
X115045954Y-95526728D01*
X115017218Y-95497993D01*
X114783829Y-95401320D01*
X114716270Y-95401320D01*
X114557520Y-95560070D01*
X114557520Y-96209320D01*
X114583910Y-96209320D01*
X114553642Y-96361487D01*
X114553642Y-96361492D01*
X114540000Y-96430075D01*
X114540001Y-97569926D01*
X114553642Y-97638504D01*
X114553642Y-97638513D01*
X114591702Y-97829856D01*
X114697716Y-98085796D01*
X114697718Y-98085800D01*
X114806105Y-98248010D01*
X114869374Y-98311278D01*
X115001989Y-98443895D01*
X115164200Y-98552282D01*
X115164203Y-98552283D01*
X115164204Y-98552284D01*
X115420145Y-98658298D01*
X115611487Y-98696358D01*
X115611491Y-98696358D01*
X115680074Y-98710000D01*
X116540000Y-98710000D01*
X116540001Y-100290000D01*
X112894960Y-100290000D01*
X112894960Y-99813682D01*
X114041996Y-98666647D01*
X114105449Y-98624249D01*
X114147847Y-98560796D01*
X114147849Y-98560794D01*
X114273423Y-98372858D01*
X114273424Y-98372857D01*
X114317520Y-98151172D01*
X114317520Y-98151168D01*
X114332408Y-98076321D01*
X114317520Y-98001474D01*
X114317520Y-97152570D01*
X114357520Y-97112570D01*
X114357520Y-96874820D01*
X114404960Y-96636320D01*
X114404960Y-96036320D01*
X114357520Y-95797820D01*
X114357520Y-95560070D01*
X114317520Y-95520070D01*
X114317520Y-95515030D01*
X114372520Y-95382249D01*
X114372520Y-94990391D01*
X114341624Y-94915802D01*
X114440948Y-94874660D01*
X114637520Y-94913760D01*
X115237520Y-94913760D01*
X115485285Y-94864477D01*
X115499436Y-94855021D01*
X115611211Y-94901320D01*
X115751770Y-94901320D01*
X115910520Y-94742570D01*
X115910520Y-94141320D01*
X115890520Y-94141320D01*
X115890520Y-93891320D01*
X115910520Y-93891320D01*
X115910520Y-93290070D01*
X115751770Y-93131320D01*
X115611211Y-93131320D01*
X115499436Y-93177619D01*
X115485285Y-93168163D01*
X115237520Y-93118880D01*
X115132520Y-93118880D01*
X115132520Y-92946582D01*
X115138001Y-92919025D01*
X115145329Y-92914129D01*
X115285677Y-92704085D01*
X115334960Y-92456320D01*
X115334960Y-92056320D01*
X115285677Y-91808555D01*
X115284184Y-91806320D01*
X115285677Y-91804085D01*
X115334960Y-91556320D01*
X115334960Y-91156320D01*
X115285677Y-90908555D01*
X115145329Y-90698511D01*
X114935285Y-90558163D01*
X114687520Y-90508880D01*
X114614882Y-90508880D01*
X114187851Y-90081850D01*
X114145449Y-90018391D01*
X113894057Y-89850416D01*
X113672372Y-89806320D01*
X113672367Y-89806320D01*
X113597520Y-89791432D01*
X113544388Y-89802001D01*
X113515329Y-89758511D01*
X113305285Y-89618163D01*
X113057520Y-89568880D01*
X112457520Y-89568880D01*
X112209755Y-89618163D01*
X112195604Y-89627619D01*
X112083829Y-89581320D01*
X111943270Y-89581320D01*
X111784520Y-89740070D01*
X111784520Y-90439320D01*
X111804520Y-90439320D01*
X111804520Y-90693320D01*
X111784520Y-90693320D01*
X111784520Y-90713320D01*
X111530520Y-90713320D01*
X111530520Y-90693320D01*
X110881270Y-90693320D01*
X110722520Y-90852070D01*
X110722520Y-91042630D01*
X110819193Y-91276019D01*
X110997822Y-91454647D01*
X111231211Y-91551320D01*
X111265687Y-91551320D01*
X111215000Y-91673690D01*
X111215000Y-92014250D01*
X111373750Y-92173000D01*
X112448000Y-92173000D01*
X112448000Y-92153000D01*
X112702000Y-92153000D01*
X112702000Y-92173000D01*
X112722000Y-92173000D01*
X112722000Y-92427000D01*
X112702000Y-92427000D01*
X112702000Y-92447000D01*
X112448000Y-92447000D01*
X112448000Y-92427000D01*
X111373750Y-92427000D01*
X111215000Y-92585750D01*
X111215000Y-92926310D01*
X111311673Y-93159699D01*
X111312873Y-93160899D01*
X111251843Y-93252235D01*
X111202560Y-93500000D01*
X111202560Y-94500000D01*
X111251843Y-94747765D01*
X111392191Y-94957809D01*
X111602235Y-95098157D01*
X111850000Y-95147440D01*
X112402520Y-95147440D01*
X112402520Y-95382249D01*
X112552478Y-95744278D01*
X112732385Y-95924185D01*
X112710080Y-96036320D01*
X112710080Y-96636320D01*
X112759363Y-96884085D01*
X112797521Y-96941192D01*
X112797520Y-97761517D01*
X112020158Y-98538880D01*
X111247520Y-98538880D01*
X111071567Y-98573879D01*
X111098157Y-98534085D01*
X111147440Y-98286320D01*
X111147440Y-96686320D01*
X111098157Y-96438555D01*
X110957809Y-96228511D01*
X110747765Y-96088163D01*
X110500000Y-96038880D01*
X109500000Y-96038880D01*
X109252235Y-96088163D01*
X109102520Y-96188200D01*
X109102520Y-96112070D01*
X108943770Y-95953320D01*
X108294520Y-95953320D01*
X108294520Y-96652570D01*
X108453270Y-96811320D01*
X108593829Y-96811320D01*
X108827218Y-96714647D01*
X108852560Y-96689305D01*
X108852560Y-98286320D01*
X108901843Y-98534085D01*
X108929193Y-98575017D01*
X108747520Y-98538880D01*
X107747520Y-98538880D01*
X107499755Y-98588163D01*
X107289711Y-98728511D01*
X107149363Y-98938555D01*
X107100080Y-99186320D01*
X107100080Y-100290000D01*
X103460000Y-100290000D01*
X103460000Y-98710000D01*
X104319926Y-98710000D01*
X104388509Y-98696358D01*
X104388513Y-98696358D01*
X104579856Y-98658298D01*
X104835796Y-98552284D01*
X104835797Y-98552283D01*
X104835800Y-98552282D01*
X104998010Y-98443895D01*
X105085508Y-98356396D01*
X105193895Y-98248011D01*
X105302282Y-98085800D01*
X105302284Y-98085796D01*
X105408298Y-97829855D01*
X105446358Y-97638513D01*
X105446358Y-97638509D01*
X105460000Y-97569926D01*
X105460000Y-96794471D01*
X105657520Y-96833760D01*
X106257520Y-96833760D01*
X106505285Y-96784477D01*
X106520137Y-96774553D01*
X106767520Y-96823760D01*
X107367520Y-96823760D01*
X107615285Y-96774477D01*
X107629436Y-96765021D01*
X107741211Y-96811320D01*
X107881770Y-96811320D01*
X108040520Y-96652570D01*
X108040520Y-95953320D01*
X108020520Y-95953320D01*
X108020520Y-95699320D01*
X108040520Y-95699320D01*
X108040520Y-95679320D01*
X108294520Y-95679320D01*
X108294520Y-95699320D01*
X108943770Y-95699320D01*
X109102520Y-95540570D01*
X109102520Y-95350010D01*
X109005847Y-95116621D01*
X108827218Y-94937993D01*
X108665742Y-94871107D01*
X108748157Y-94747765D01*
X108797440Y-94500000D01*
X108797440Y-93500000D01*
X108748157Y-93252235D01*
X108687127Y-93160899D01*
X108688327Y-93159699D01*
X108785000Y-92926310D01*
X108785000Y-92585750D01*
X108626250Y-92427000D01*
X107552000Y-92427000D01*
X107552000Y-92447000D01*
X107298000Y-92447000D01*
X107298000Y-92427000D01*
X107278000Y-92427000D01*
X107278000Y-92173000D01*
X107298000Y-92173000D01*
X107298000Y-91323750D01*
X107552000Y-91323750D01*
X107552000Y-92173000D01*
X108626250Y-92173000D01*
X108785000Y-92014250D01*
X108785000Y-91673690D01*
X108688327Y-91440301D01*
X108509698Y-91261673D01*
X108276309Y-91165000D01*
X107710750Y-91165000D01*
X107552000Y-91323750D01*
X107298000Y-91323750D01*
X107161791Y-91187541D01*
X107250790Y-90972679D01*
X107250790Y-90732070D01*
X107092040Y-90573320D01*
X106342740Y-90573320D01*
X106342740Y-90593320D01*
X106088740Y-90593320D01*
X106088740Y-90573320D01*
X105339440Y-90573320D01*
X105194655Y-90718105D01*
X105074619Y-90538461D01*
X104936721Y-90446320D01*
X105074619Y-90354179D01*
X105194655Y-90174535D01*
X105339440Y-90319320D01*
X106088740Y-90319320D01*
X106088740Y-89570020D01*
X106342740Y-89570020D01*
X106342740Y-90319320D01*
X107092040Y-90319320D01*
X107250790Y-90160570D01*
X107250790Y-90090010D01*
X110722520Y-90090010D01*
X110722520Y-90280570D01*
X110881270Y-90439320D01*
X111530520Y-90439320D01*
X111530520Y-89740070D01*
X111371770Y-89581320D01*
X111231211Y-89581320D01*
X110997822Y-89677993D01*
X110819193Y-89856621D01*
X110722520Y-90090010D01*
X107250790Y-90090010D01*
X107250790Y-89919961D01*
X107154117Y-89686572D01*
X106975489Y-89507943D01*
X106742100Y-89411270D01*
X106501490Y-89411270D01*
X106342740Y-89570020D01*
X106088740Y-89570020D01*
X105929990Y-89411270D01*
X105689380Y-89411270D01*
X105455991Y-89507943D01*
X105277363Y-89686572D01*
X105264250Y-89718230D01*
X105264250Y-89196320D01*
X105451770Y-89196320D01*
X105610520Y-89037570D01*
X105610520Y-88313320D01*
X105864520Y-88313320D01*
X105864520Y-89037570D01*
X106023270Y-89196320D01*
X106263829Y-89196320D01*
X106497218Y-89099647D01*
X106675847Y-88921019D01*
X106772520Y-88687630D01*
X106772520Y-88472070D01*
X106613770Y-88313320D01*
X105864520Y-88313320D01*
X105610520Y-88313320D01*
X105590520Y-88313320D01*
X105590520Y-88059320D01*
X105610520Y-88059320D01*
X105610520Y-88039320D01*
X105864520Y-88039320D01*
X105864520Y-88059320D01*
X106613770Y-88059320D01*
X106772520Y-87900570D01*
X106772520Y-87685010D01*
X106675847Y-87451621D01*
X106665546Y-87441320D01*
X107163068Y-87441320D01*
X107653737Y-87238078D01*
X108029278Y-86862537D01*
X108099421Y-86693198D01*
X108192347Y-86737654D01*
X108170000Y-86850000D01*
X108309300Y-87550311D01*
X108705995Y-88144005D01*
X109299689Y-88540700D01*
X110000000Y-88680000D01*
X110700311Y-88540700D01*
X111294005Y-88144005D01*
X111690700Y-87550311D01*
X111830000Y-86850000D01*
X111690700Y-86149689D01*
X111294005Y-85555995D01*
X111232652Y-85515000D01*
X111295385Y-85515000D01*
X111841185Y-85288922D01*
X112056149Y-85073958D01*
X112635647Y-85073958D01*
X112715920Y-85325259D01*
X113271279Y-85526718D01*
X113861458Y-85500315D01*
X114284080Y-85325259D01*
X114364353Y-85073958D01*
X113500000Y-84209605D01*
X112635647Y-85073958D01*
X112056149Y-85073958D01*
X112258922Y-84871185D01*
X112273481Y-84836037D01*
X112456042Y-84894353D01*
X113320395Y-84030000D01*
X113306253Y-84015858D01*
X113485858Y-83836253D01*
X113500000Y-83850395D01*
X113514143Y-83836253D01*
X113693748Y-84015858D01*
X113679605Y-84030000D01*
X114543958Y-84894353D01*
X114795259Y-84814080D01*
X114996718Y-84258721D01*
X114991183Y-84135000D01*
X115564250Y-84135000D01*
X115723000Y-83976250D01*
X115723000Y-82768327D01*
X115977000Y-82676011D01*
X115977000Y-83976250D01*
X115977000Y-83976250D01*
G37*
X115977000Y-83976250D02*
X116135750Y-84135000D01*
X116540000Y-84135000D01*
X116540001Y-93162871D01*
X116463829Y-93131320D01*
X116323270Y-93131320D01*
X116164520Y-93290070D01*
X116164520Y-93891320D01*
X116184520Y-93891320D01*
X116184520Y-94141320D01*
X116164520Y-94141320D01*
X116164520Y-94742570D01*
X116323270Y-94901320D01*
X116463829Y-94901320D01*
X116540001Y-94869769D01*
X116540001Y-95290000D01*
X115680074Y-95290000D01*
X115611491Y-95303642D01*
X115611487Y-95303642D01*
X115420145Y-95341702D01*
X115164204Y-95447716D01*
X115164203Y-95447717D01*
X115164200Y-95447718D01*
X115045954Y-95526728D01*
X115017218Y-95497993D01*
X114783829Y-95401320D01*
X114716270Y-95401320D01*
X114557520Y-95560070D01*
X114557520Y-96209320D01*
X114583910Y-96209320D01*
X114553642Y-96361487D01*
X114553642Y-96361492D01*
X114540000Y-96430075D01*
X114540001Y-97569926D01*
X114553642Y-97638504D01*
X114553642Y-97638513D01*
X114591702Y-97829856D01*
X114697716Y-98085796D01*
X114697718Y-98085800D01*
X114806105Y-98248010D01*
X114869374Y-98311278D01*
X115001989Y-98443895D01*
X115164200Y-98552282D01*
X115164203Y-98552283D01*
X115164204Y-98552284D01*
X115420145Y-98658298D01*
X115611487Y-98696358D01*
X115611491Y-98696358D01*
X115680074Y-98710000D01*
X116540000Y-98710000D01*
X116540001Y-100290000D01*
X112894960Y-100290000D01*
X112894960Y-99813682D01*
X114041996Y-98666647D01*
X114105449Y-98624249D01*
X114147847Y-98560796D01*
X114147849Y-98560794D01*
X114273423Y-98372858D01*
X114273424Y-98372857D01*
X114317520Y-98151172D01*
X114317520Y-98151168D01*
X114332408Y-98076321D01*
X114317520Y-98001474D01*
X114317520Y-97152570D01*
X114357520Y-97112570D01*
X114357520Y-96874820D01*
X114404960Y-96636320D01*
X114404960Y-96036320D01*
X114357520Y-95797820D01*
X114357520Y-95560070D01*
X114317520Y-95520070D01*
X114317520Y-95515030D01*
X114372520Y-95382249D01*
X114372520Y-94990391D01*
X114341624Y-94915802D01*
X114440948Y-94874660D01*
X114637520Y-94913760D01*
X115237520Y-94913760D01*
X115485285Y-94864477D01*
X115499436Y-94855021D01*
X115611211Y-94901320D01*
X115751770Y-94901320D01*
X115910520Y-94742570D01*
X115910520Y-94141320D01*
X115890520Y-94141320D01*
X115890520Y-93891320D01*
X115910520Y-93891320D01*
X115910520Y-93290070D01*
X115751770Y-93131320D01*
X115611211Y-93131320D01*
X115499436Y-93177619D01*
X115485285Y-93168163D01*
X115237520Y-93118880D01*
X115132520Y-93118880D01*
X115132520Y-92946582D01*
X115138001Y-92919025D01*
X115145329Y-92914129D01*
X115285677Y-92704085D01*
X115334960Y-92456320D01*
X115334960Y-92056320D01*
X115285677Y-91808555D01*
X115284184Y-91806320D01*
X115285677Y-91804085D01*
X115334960Y-91556320D01*
X115334960Y-91156320D01*
X115285677Y-90908555D01*
X115145329Y-90698511D01*
X114935285Y-90558163D01*
X114687520Y-90508880D01*
X114614882Y-90508880D01*
X114187851Y-90081850D01*
X114145449Y-90018391D01*
X113894057Y-89850416D01*
X113672372Y-89806320D01*
X113672367Y-89806320D01*
X113597520Y-89791432D01*
X113544388Y-89802001D01*
X113515329Y-89758511D01*
X113305285Y-89618163D01*
X113057520Y-89568880D01*
X112457520Y-89568880D01*
X112209755Y-89618163D01*
X112195604Y-89627619D01*
X112083829Y-89581320D01*
X111943270Y-89581320D01*
X111784520Y-89740070D01*
X111784520Y-90439320D01*
X111804520Y-90439320D01*
X111804520Y-90693320D01*
X111784520Y-90693320D01*
X111784520Y-90713320D01*
X111530520Y-90713320D01*
X111530520Y-90693320D01*
X110881270Y-90693320D01*
X110722520Y-90852070D01*
X110722520Y-91042630D01*
X110819193Y-91276019D01*
X110997822Y-91454647D01*
X111231211Y-91551320D01*
X111265687Y-91551320D01*
X111215000Y-91673690D01*
X111215000Y-92014250D01*
X111373750Y-92173000D01*
X112448000Y-92173000D01*
X112448000Y-92153000D01*
X112702000Y-92153000D01*
X112702000Y-92173000D01*
X112722000Y-92173000D01*
X112722000Y-92427000D01*
X112702000Y-92427000D01*
X112702000Y-92447000D01*
X112448000Y-92447000D01*
X112448000Y-92427000D01*
X111373750Y-92427000D01*
X111215000Y-92585750D01*
X111215000Y-92926310D01*
X111311673Y-93159699D01*
X111312873Y-93160899D01*
X111251843Y-93252235D01*
X111202560Y-93500000D01*
X111202560Y-94500000D01*
X111251843Y-94747765D01*
X111392191Y-94957809D01*
X111602235Y-95098157D01*
X111850000Y-95147440D01*
X112402520Y-95147440D01*
X112402520Y-95382249D01*
X112552478Y-95744278D01*
X112732385Y-95924185D01*
X112710080Y-96036320D01*
X112710080Y-96636320D01*
X112759363Y-96884085D01*
X112797521Y-96941192D01*
X112797520Y-97761517D01*
X112020158Y-98538880D01*
X111247520Y-98538880D01*
X111071567Y-98573879D01*
X111098157Y-98534085D01*
X111147440Y-98286320D01*
X111147440Y-96686320D01*
X111098157Y-96438555D01*
X110957809Y-96228511D01*
X110747765Y-96088163D01*
X110500000Y-96038880D01*
X109500000Y-96038880D01*
X109252235Y-96088163D01*
X109102520Y-96188200D01*
X109102520Y-96112070D01*
X108943770Y-95953320D01*
X108294520Y-95953320D01*
X108294520Y-96652570D01*
X108453270Y-96811320D01*
X108593829Y-96811320D01*
X108827218Y-96714647D01*
X108852560Y-96689305D01*
X108852560Y-98286320D01*
X108901843Y-98534085D01*
X108929193Y-98575017D01*
X108747520Y-98538880D01*
X107747520Y-98538880D01*
X107499755Y-98588163D01*
X107289711Y-98728511D01*
X107149363Y-98938555D01*
X107100080Y-99186320D01*
X107100080Y-100290000D01*
X103460000Y-100290000D01*
X103460000Y-98710000D01*
X104319926Y-98710000D01*
X104388509Y-98696358D01*
X104388513Y-98696358D01*
X104579856Y-98658298D01*
X104835796Y-98552284D01*
X104835797Y-98552283D01*
X104835800Y-98552282D01*
X104998010Y-98443895D01*
X105085508Y-98356396D01*
X105193895Y-98248011D01*
X105302282Y-98085800D01*
X105302284Y-98085796D01*
X105408298Y-97829855D01*
X105446358Y-97638513D01*
X105446358Y-97638509D01*
X105460000Y-97569926D01*
X105460000Y-96794471D01*
X105657520Y-96833760D01*
X106257520Y-96833760D01*
X106505285Y-96784477D01*
X106520137Y-96774553D01*
X106767520Y-96823760D01*
X107367520Y-96823760D01*
X107615285Y-96774477D01*
X107629436Y-96765021D01*
X107741211Y-96811320D01*
X107881770Y-96811320D01*
X108040520Y-96652570D01*
X108040520Y-95953320D01*
X108020520Y-95953320D01*
X108020520Y-95699320D01*
X108040520Y-95699320D01*
X108040520Y-95679320D01*
X108294520Y-95679320D01*
X108294520Y-95699320D01*
X108943770Y-95699320D01*
X109102520Y-95540570D01*
X109102520Y-95350010D01*
X109005847Y-95116621D01*
X108827218Y-94937993D01*
X108665742Y-94871107D01*
X108748157Y-94747765D01*
X108797440Y-94500000D01*
X108797440Y-93500000D01*
X108748157Y-93252235D01*
X108687127Y-93160899D01*
X108688327Y-93159699D01*
X108785000Y-92926310D01*
X108785000Y-92585750D01*
X108626250Y-92427000D01*
X107552000Y-92427000D01*
X107552000Y-92447000D01*
X107298000Y-92447000D01*
X107298000Y-92427000D01*
X107278000Y-92427000D01*
X107278000Y-92173000D01*
X107298000Y-92173000D01*
X107298000Y-91323750D01*
X107552000Y-91323750D01*
X107552000Y-92173000D01*
X108626250Y-92173000D01*
X108785000Y-92014250D01*
X108785000Y-91673690D01*
X108688327Y-91440301D01*
X108509698Y-91261673D01*
X108276309Y-91165000D01*
X107710750Y-91165000D01*
X107552000Y-91323750D01*
X107298000Y-91323750D01*
X107161791Y-91187541D01*
X107250790Y-90972679D01*
X107250790Y-90732070D01*
X107092040Y-90573320D01*
X106342740Y-90573320D01*
X106342740Y-90593320D01*
X106088740Y-90593320D01*
X106088740Y-90573320D01*
X105339440Y-90573320D01*
X105194655Y-90718105D01*
X105074619Y-90538461D01*
X104936721Y-90446320D01*
X105074619Y-90354179D01*
X105194655Y-90174535D01*
X105339440Y-90319320D01*
X106088740Y-90319320D01*
X106088740Y-89570020D01*
X106342740Y-89570020D01*
X106342740Y-90319320D01*
X107092040Y-90319320D01*
X107250790Y-90160570D01*
X107250790Y-90090010D01*
X110722520Y-90090010D01*
X110722520Y-90280570D01*
X110881270Y-90439320D01*
X111530520Y-90439320D01*
X111530520Y-89740070D01*
X111371770Y-89581320D01*
X111231211Y-89581320D01*
X110997822Y-89677993D01*
X110819193Y-89856621D01*
X110722520Y-90090010D01*
X107250790Y-90090010D01*
X107250790Y-89919961D01*
X107154117Y-89686572D01*
X106975489Y-89507943D01*
X106742100Y-89411270D01*
X106501490Y-89411270D01*
X106342740Y-89570020D01*
X106088740Y-89570020D01*
X105929990Y-89411270D01*
X105689380Y-89411270D01*
X105455991Y-89507943D01*
X105277363Y-89686572D01*
X105264250Y-89718230D01*
X105264250Y-89196320D01*
X105451770Y-89196320D01*
X105610520Y-89037570D01*
X105610520Y-88313320D01*
X105864520Y-88313320D01*
X105864520Y-89037570D01*
X106023270Y-89196320D01*
X106263829Y-89196320D01*
X106497218Y-89099647D01*
X106675847Y-88921019D01*
X106772520Y-88687630D01*
X106772520Y-88472070D01*
X106613770Y-88313320D01*
X105864520Y-88313320D01*
X105610520Y-88313320D01*
X105590520Y-88313320D01*
X105590520Y-88059320D01*
X105610520Y-88059320D01*
X105610520Y-88039320D01*
X105864520Y-88039320D01*
X105864520Y-88059320D01*
X106613770Y-88059320D01*
X106772520Y-87900570D01*
X106772520Y-87685010D01*
X106675847Y-87451621D01*
X106665546Y-87441320D01*
X107163068Y-87441320D01*
X107653737Y-87238078D01*
X108029278Y-86862537D01*
X108099421Y-86693198D01*
X108192347Y-86737654D01*
X108170000Y-86850000D01*
X108309300Y-87550311D01*
X108705995Y-88144005D01*
X109299689Y-88540700D01*
X110000000Y-88680000D01*
X110700311Y-88540700D01*
X111294005Y-88144005D01*
X111690700Y-87550311D01*
X111830000Y-86850000D01*
X111690700Y-86149689D01*
X111294005Y-85555995D01*
X111232652Y-85515000D01*
X111295385Y-85515000D01*
X111841185Y-85288922D01*
X112056149Y-85073958D01*
X112635647Y-85073958D01*
X112715920Y-85325259D01*
X113271279Y-85526718D01*
X113861458Y-85500315D01*
X114284080Y-85325259D01*
X114364353Y-85073958D01*
X113500000Y-84209605D01*
X112635647Y-85073958D01*
X112056149Y-85073958D01*
X112258922Y-84871185D01*
X112273481Y-84836037D01*
X112456042Y-84894353D01*
X113320395Y-84030000D01*
X113306253Y-84015858D01*
X113485858Y-83836253D01*
X113500000Y-83850395D01*
X113514143Y-83836253D01*
X113693748Y-84015858D01*
X113679605Y-84030000D01*
X114543958Y-84894353D01*
X114795259Y-84814080D01*
X114996718Y-84258721D01*
X114991183Y-84135000D01*
X115564250Y-84135000D01*
X115723000Y-83976250D01*
X115723000Y-82768327D01*
X115977000Y-82676011D01*
X115977000Y-83976250D01*
G36*
X103521040Y-93526926D02*
X103540680Y-93556319D01*
X103607771Y-93656728D01*
X103607773Y-93656730D01*
X103632520Y-93693766D01*
X103632520Y-93752249D01*
X103782478Y-94114278D01*
X104059562Y-94391362D01*
X104421591Y-94541320D01*
X104813449Y-94541320D01*
X105175478Y-94391362D01*
X105197521Y-94369319D01*
X105197520Y-94431789D01*
X105059363Y-94638555D01*
X105010080Y-94886320D01*
X105010080Y-95286320D01*
X105059363Y-95534085D01*
X105060856Y-95536320D01*
X105059363Y-95538555D01*
X105046272Y-95604368D01*
X104998010Y-95556105D01*
X104835800Y-95447718D01*
X104835797Y-95447717D01*
X104835796Y-95447716D01*
X104579856Y-95341702D01*
X104388513Y-95303642D01*
X104388509Y-95303642D01*
X104319926Y-95290000D01*
X103460000Y-95290000D01*
X103460000Y-93486140D01*
X103521040Y-93526926D01*
X103521040Y-93526926D01*
G37*
X103521040Y-93526926D02*
X103540680Y-93556319D01*
X103607771Y-93656728D01*
X103607773Y-93656730D01*
X103632520Y-93693766D01*
X103632520Y-93752249D01*
X103782478Y-94114278D01*
X104059562Y-94391362D01*
X104421591Y-94541320D01*
X104813449Y-94541320D01*
X105175478Y-94391362D01*
X105197521Y-94369319D01*
X105197520Y-94431789D01*
X105059363Y-94638555D01*
X105010080Y-94886320D01*
X105010080Y-95286320D01*
X105059363Y-95534085D01*
X105060856Y-95536320D01*
X105059363Y-95538555D01*
X105046272Y-95604368D01*
X104998010Y-95556105D01*
X104835800Y-95447718D01*
X104835797Y-95447717D01*
X104835796Y-95447716D01*
X104579856Y-95341702D01*
X104388513Y-95303642D01*
X104388509Y-95303642D01*
X104319926Y-95290000D01*
X103460000Y-95290000D01*
X103460000Y-93486140D01*
X103521040Y-93526926D01*
G36*
X105277363Y-91206068D02*
X105455991Y-91384697D01*
X105689380Y-91481370D01*
X105929990Y-91481370D01*
X106088738Y-91322622D01*
X106088738Y-91481370D01*
X106144662Y-91481370D01*
X106105332Y-91576320D01*
X106003270Y-91576320D01*
X105844520Y-91735070D01*
X105844520Y-92459320D01*
X105864520Y-92459320D01*
X105864520Y-92639102D01*
X105637059Y-92733320D01*
X105590520Y-92733320D01*
X105590520Y-92713320D01*
X105570520Y-92713320D01*
X105570520Y-92459320D01*
X105590520Y-92459320D01*
X105590520Y-91735070D01*
X105431770Y-91576320D01*
X105264250Y-91576320D01*
X105264250Y-91174410D01*
X105277363Y-91206068D01*
X105277363Y-91206068D01*
G37*
X105277363Y-91206068D02*
X105455991Y-91384697D01*
X105689380Y-91481370D01*
X105929990Y-91481370D01*
X106088738Y-91322622D01*
X106088738Y-91481370D01*
X106144662Y-91481370D01*
X106105332Y-91576320D01*
X106003270Y-91576320D01*
X105844520Y-91735070D01*
X105844520Y-92459320D01*
X105864520Y-92459320D01*
X105864520Y-92639102D01*
X105637059Y-92733320D01*
X105590520Y-92733320D01*
X105590520Y-92713320D01*
X105570520Y-92713320D01*
X105570520Y-92459320D01*
X105590520Y-92459320D01*
X105590520Y-91735070D01*
X105431770Y-91576320D01*
X105264250Y-91576320D01*
X105264250Y-91174410D01*
X105277363Y-91206068D01*
G04 #@! TD*
M02*
