G04 #@! TF.GenerationSoftware,KiCad,Pcbnew,(5.0.2)-1*
G04 #@! TF.CreationDate,2019-04-16T13:26:55-07:00*
G04 #@! TF.ProjectId,signet-pcb,7369676e-6574-42d7-9063-622e6b696361,rev?*
G04 #@! TF.SameCoordinates,Original*
G04 #@! TF.FileFunction,Legend,Bot*
G04 #@! TF.FilePolarity,Positive*
%FSLAX46Y46*%
G04 Gerber Fmt 4.6, Leading zero omitted, Abs format (unit mm)*
G04 Created by KiCad (PCBNEW (5.0.2)-1) date 4/16/2019 1:26:55 PM*
%MOMM*%
%LPD*%
G01*
G04 APERTURE LIST*
%ADD10C,0.120000*%
%ADD11C,0.150000*%
%ADD12C,0.100000*%
G04 APERTURE END LIST*
D10*
G04 #@! TO.C,C5*
X106132860Y-91260200D02*
X106132860Y-90760200D01*
X107072860Y-90760200D02*
X107072860Y-91260200D01*
D11*
G04 #@! TO.C,U1*
X112525000Y-90695000D02*
X112000000Y-90695000D01*
X107275000Y-95945000D02*
X107800000Y-95945000D01*
X107275000Y-90695000D02*
X107800000Y-90695000D01*
X112525000Y-95945000D02*
X112525000Y-95420000D01*
X107275000Y-95945000D02*
X107275000Y-95420000D01*
X107275000Y-90695000D02*
X107275000Y-91220000D01*
X112525000Y-90695000D02*
X112525000Y-91220000D01*
D10*
G04 #@! TO.C,C6*
X112417520Y-97296320D02*
X111917520Y-97296320D01*
X111917520Y-96356320D02*
X112417520Y-96356320D01*
G04 #@! TO.C,R1*
X114337520Y-96186320D02*
X114337520Y-96686320D01*
X113277520Y-96686320D02*
X113277520Y-96186320D01*
G04 #@! TO.C,C5*
D12*
X105841805Y-90756320D02*
X105870377Y-90727748D01*
X105898948Y-90642034D01*
X105898948Y-90584891D01*
X105870377Y-90499177D01*
X105813234Y-90442034D01*
X105756091Y-90413462D01*
X105641805Y-90384891D01*
X105556091Y-90384891D01*
X105441805Y-90413462D01*
X105384662Y-90442034D01*
X105327520Y-90499177D01*
X105298948Y-90584891D01*
X105298948Y-90642034D01*
X105327520Y-90727748D01*
X105356091Y-90756320D01*
X105298948Y-91299177D02*
X105298948Y-91013462D01*
X105584662Y-90984891D01*
X105556091Y-91013462D01*
X105527520Y-91070605D01*
X105527520Y-91213462D01*
X105556091Y-91270605D01*
X105584662Y-91299177D01*
X105641805Y-91327748D01*
X105784662Y-91327748D01*
X105841805Y-91299177D01*
X105870377Y-91270605D01*
X105898948Y-91213462D01*
X105898948Y-91070605D01*
X105870377Y-91013462D01*
X105841805Y-90984891D01*
G04 #@! TO.C,U1*
X113321428Y-92862857D02*
X113807142Y-92862857D01*
X113864285Y-92891428D01*
X113892857Y-92920000D01*
X113921428Y-92977142D01*
X113921428Y-93091428D01*
X113892857Y-93148571D01*
X113864285Y-93177142D01*
X113807142Y-93205714D01*
X113321428Y-93205714D01*
X113921428Y-93805714D02*
X113921428Y-93462857D01*
X113921428Y-93634285D02*
X113321428Y-93634285D01*
X113407142Y-93577142D01*
X113464285Y-93520000D01*
X113492857Y-93462857D01*
G04 #@! TO.C,C6*
X112317520Y-98010605D02*
X112346091Y-98039177D01*
X112431805Y-98067748D01*
X112488948Y-98067748D01*
X112574662Y-98039177D01*
X112631805Y-97982034D01*
X112660377Y-97924891D01*
X112688948Y-97810605D01*
X112688948Y-97724891D01*
X112660377Y-97610605D01*
X112631805Y-97553462D01*
X112574662Y-97496320D01*
X112488948Y-97467748D01*
X112431805Y-97467748D01*
X112346091Y-97496320D01*
X112317520Y-97524891D01*
X111803234Y-97467748D02*
X111917520Y-97467748D01*
X111974662Y-97496320D01*
X112003234Y-97524891D01*
X112060377Y-97610605D01*
X112088948Y-97724891D01*
X112088948Y-97953462D01*
X112060377Y-98010605D01*
X112031805Y-98039177D01*
X111974662Y-98067748D01*
X111860377Y-98067748D01*
X111803234Y-98039177D01*
X111774662Y-98010605D01*
X111746091Y-97953462D01*
X111746091Y-97810605D01*
X111774662Y-97753462D01*
X111803234Y-97724891D01*
X111860377Y-97696320D01*
X111974662Y-97696320D01*
X112031805Y-97724891D01*
X112060377Y-97753462D01*
X112088948Y-97810605D01*
G04 #@! TO.C,R1*
X115068948Y-96346320D02*
X114783234Y-96146320D01*
X115068948Y-96003462D02*
X114468948Y-96003462D01*
X114468948Y-96232034D01*
X114497520Y-96289177D01*
X114526091Y-96317748D01*
X114583234Y-96346320D01*
X114668948Y-96346320D01*
X114726091Y-96317748D01*
X114754662Y-96289177D01*
X114783234Y-96232034D01*
X114783234Y-96003462D01*
X115068948Y-96917748D02*
X115068948Y-96574891D01*
X115068948Y-96746320D02*
X114468948Y-96746320D01*
X114554662Y-96689177D01*
X114611805Y-96632034D01*
X114640377Y-96574891D01*
G04 #@! TD*
M02*
